<svg width="75" height="67" viewBox="0 0 75 67" fill="none" xmlns="http://www.w3.org/2000/svg">
<path d="M0 10.9319C0 10.8078 0.10057 10.7073 0.22463 10.7073H23.2866C29.9858 10.7073 35.4166 16.1381 35.4166 22.8373V22.8373C35.4166 22.9613 35.316 23.0619 35.192 23.0619H12.13C5.43079 23.0619 0 17.6311 0 10.9319V10.9319Z" fill="#0B0606"/>
<path d="M6.58911 29.8758C6.58911 29.7517 6.68968 29.6511 6.81374 29.6511H21.0029C24.4145 29.6511 27.1802 32.4168 27.1802 35.8284V35.8284C27.1802 39.2401 24.4145 42.0058 21.0029 42.0058H16.8846C11.1986 42.0058 6.58911 37.3963 6.58911 31.7102V29.8758Z" fill="#0B0707"/>
<path d="M14.8257 47.1724C14.8257 47.0483 14.9263 46.9478 15.0503 46.9478H24.7094C31.5327 46.9478 37.064 52.4791 37.064 59.3024V59.3024H26.9557C20.2565 59.3024 14.8257 53.8716 14.8257 47.1724V47.1724Z" fill="#0B0707"/>
<mask id="path-4-inside-1_155_270" fill="white">
<path fill-rule="evenodd" clip-rule="evenodd" d="M21.9624 30.9381C29.7705 16.379 56.6396 9.69903 56.6396 9.69903C56.6396 9.69903 65.8686 35.576 58.2219 50.167C58.1924 50.2235 58.1625 50.28 58.1323 50.3364C53.2809 59.3822 41.2512 62.3729 31.2632 57.0163C21.2752 51.6597 17.1111 39.9842 21.9625 30.9383C21.9625 30.9383 21.9625 30.9382 21.9625 30.9382L21.9624 30.9381Z"/>
</mask>
<path d="M56.6396 9.69903L64.1747 7.01163C62.7933 3.13829 58.7003 0.943195 54.7094 1.93536L56.6396 9.69903ZM21.9624 30.9381L14.9123 27.1571C13.9095 29.0269 13.6906 31.2185 14.3037 33.2497C14.9167 35.2809 16.3116 36.9854 18.1814 37.9882L21.9624 30.9381ZM58.2219 50.167L51.136 46.4534L51.13 46.465L58.2219 50.167ZM21.9625 30.9382L29.0126 34.7192C30.0154 32.8494 30.2344 30.6578 29.6213 28.6266C29.0082 26.5954 27.6134 24.8909 25.7436 23.8881L21.9625 30.9382ZM56.6396 9.69903C54.7094 1.93536 54.7077 1.93581 54.7058 1.93628C54.705 1.93647 54.703 1.93696 54.7015 1.93734C54.6984 1.93811 54.6949 1.93898 54.691 1.93995C54.6833 1.9419 54.6738 1.94427 54.6628 1.94706C54.6407 1.95264 54.6121 1.9599 54.5771 1.96884C54.5073 1.98674 54.4121 2.01138 54.2931 2.04283C54.055 2.10572 53.7209 2.1959 53.3022 2.31374C52.4657 2.5492 51.2871 2.89631 49.8586 3.35811C47.0138 4.27773 43.1156 5.67212 38.9242 7.57345C31.0175 11.1601 20.1554 17.3807 14.9123 27.1571L29.0125 34.7191C31.5775 29.9364 38.054 25.5374 45.5339 22.1443C49.0358 20.5558 52.3429 19.3703 54.78 18.5824C55.9924 18.1905 56.974 17.902 57.6374 17.7153C57.9687 17.622 58.2195 17.5545 58.3788 17.5124C58.4584 17.4913 58.5151 17.4767 58.5474 17.4684C58.5635 17.4643 58.5736 17.4618 58.5774 17.4608C58.5793 17.4603 58.5796 17.4602 58.5783 17.4606C58.5777 17.4607 58.5766 17.461 58.5752 17.4613C58.5745 17.4615 58.5731 17.4619 58.5728 17.4619C58.5713 17.4623 58.5697 17.4627 56.6396 9.69903ZM65.3078 53.8805C70.4269 44.1126 69.5841 31.7043 68.1941 23.1747C67.458 18.6575 66.4673 14.6653 65.6639 11.8062C65.2604 10.3705 64.8998 9.20488 64.6349 8.3836C64.5024 7.9726 64.3934 7.64674 64.3146 7.41525C64.2752 7.29947 64.2433 7.20719 64.2197 7.13957C64.2079 7.10575 64.1982 7.07809 64.1907 7.05672C64.1869 7.04604 64.1837 7.03692 64.181 7.0294C64.1797 7.02564 64.1785 7.02228 64.1774 7.01932C64.1769 7.01784 64.1762 7.01591 64.176 7.01517C64.1753 7.01335 64.1747 7.01163 56.6396 9.69903C49.1045 12.3864 49.1039 12.3849 49.1034 12.3835C49.1033 12.3831 49.1028 12.3818 49.1026 12.3811C49.1021 12.3797 49.1017 12.3787 49.1015 12.3781C49.1011 12.3769 49.1012 12.3772 49.1018 12.379C49.1031 12.3826 49.1065 12.3923 49.1119 12.4079C49.1228 12.439 49.1418 12.4938 49.1681 12.5712C49.2208 12.7259 49.3026 12.9702 49.4075 13.2953C49.6174 13.9461 49.9181 14.9162 50.2604 16.1344C50.9485 18.5832 51.7871 21.9721 52.4024 25.7481C53.7153 33.8047 53.6637 41.6303 51.136 46.4534L65.3078 53.8805ZM51.13 46.465C51.1143 46.4949 51.0984 46.525 51.0822 46.5553L65.1824 54.1174C65.2266 54.0349 65.2704 53.9521 65.3138 53.8689L51.13 46.465ZM51.0822 46.5553C48.6627 51.0666 41.812 53.5958 35.0442 49.9662L27.4822 64.0664C40.6904 71.1501 57.8991 67.6979 65.1824 54.1174L51.0822 46.5553ZM35.0442 49.9662C28.2764 46.3366 26.5932 39.2306 29.0126 34.7193L14.9124 27.1573C7.62907 40.7378 14.274 56.9828 27.4822 64.0664L35.0442 49.9662ZM29.0126 34.7193C29.0126 34.7193 29.0126 34.7193 29.0126 34.7192L14.9125 27.1571C14.9124 27.1572 14.9124 27.1572 14.9124 27.1573L29.0126 34.7193ZM18.1814 37.9882L18.1815 37.9883L25.7436 23.8881L25.7434 23.888L18.1814 37.9882Z" fill="#07070F" mask="url(#path-4-inside-1_155_270)"/>
</svg>
